# xmcd
# 
# Track frame offsets:
#     150
#     16191
#     40191
#     55915
#     72265
#     97752
#     122502
#     132743
#     146151
# 
# Disc length: 2227
# 
# Revision: 2
# Processed by: cddbd v1.5.2PL0 Copyright (c) Steve Scherf et al.
# Submitted via: fre:ac v1.0.31
# 
DISCID=7a08b109
DTITLE=Stay - Starling To Lose Control
DYEAR=2005
DGENRE=
TTITLE0=Show Me The Way
TTITLE1=Worn Out
TTITLE2=I'm Still Nothing
TTITLE3=So Slow
TTITLE4=As Another Girl
TTITLE5=Chicago
TTITLE6=Talk To You
TTITLE7=Starting To Lose
TTITLE8=Self Control
EXTD=
EXTT0=
EXTT1=
EXTT2=
EXTT3=
EXTT4=
EXTT5=
EXTT6=
EXTT7=
EXTT8=
PLAYORDER=
